<mxfile host="app.diagrams.net" modified="2024-05-31T14:39:24.532Z" agent="Mozilla/5.0 (Windows NT 10.0; Win64; x64; rv:126.0) Gecko/20100101 Firefox/126.0" version="24.4.13" etag="nthbvUW6OBsidtFC-K9M" type="github">
  <diagram name="Page-1" id="ZCxUZjCs2w_mGWg6BgIN">
    <mxGraphModel>
      <root>
        <mxCell id="0" />
        <mxCell id="1" parent="0" />
      </root>
    </mxGraphModel>
  </diagram>
</mxfile>
